<?xml version="1.0" encoding="UTF-8" standalone="no"?>
<!-- Created with Inkscape (http://www.inkscape.org/) -->

<svg
   xmlns:dc="http://purl.org/dc/elements/1.1/"
   xmlns:cc="http://creativecommons.org/ns#"
   xmlns:rdf="http://www.w3.org/1999/02/22-rdf-syntax-ns#"
   xmlns:svg="http://www.w3.org/2000/svg"
   xmlns="http://www.w3.org/2000/svg"
   version="1.1"
   width="600"
   height="349.37146"
   id="svg2">
  <metadata
     id="metadata8">
    <rdf:RDF>
      <cc:Work
         rdf:about="">
        <dc:format>image/svg+xml</dc:format>
        <dc:type
           rdf:resource="http://purl.org/dc/dcmitype/StillImage" />
        <dc:title></dc:title>
      </cc:Work>
    </rdf:RDF>
  </metadata>
  <defs
     id="defs6" />
  <path
     d="m 300.86879,298.79833 c -3.60312,-0.4782 -10.91819,-2.26716 -14.52993,-3.5534 -3.65306,-1.30097 -5.64695,-1.36131 -37.58613,-1.13733 -10.01332,0.0702 -18.45782,-0.26882 -18.76554,-0.75339 -0.32062,-0.50488 8.83109,-0.99568 21.43446,-1.14953 12.09669,-0.14767 21.98938,-0.64514 21.98375,-1.10549 -0.0166,-1.35767 -4.82956,-3.0837 -8.81098,-3.15979 -2.03139,-0.0388 -2.86924,-0.29389 -1.86188,-0.56681 1.21701,-0.32972 1.65971,-1.1221 1.31938,-2.36152 -0.40111,-1.46076 0.76179,-1.02269 5.36201,2.01989 3.23082,2.13685 6.54535,3.87698 7.36565,3.86697 0.82029,-0.01 1.74215,0.3766 2.04859,0.85915 0.46415,0.73091 4.96489,1.99155 9.0757,2.54206 0.54935,0.0736 1.67527,0.40672 2.50203,0.74033 3.37614,1.36235 10.83832,2.4929 16.17555,2.45068 3.12097,-0.0247 5.91332,0.33118 6.20521,0.79082 0.49,0.77161 -7.41619,1.11482 -11.91787,0.51736 z m 14.50817,-0.39397 c -0.007,-0.54837 1.10951,-1.01074 2.48046,-1.02748 1.37095,-0.0168 2.49811,0.41824 2.5048,0.96662 0.007,0.54838 -1.10951,1.01075 -2.48046,1.02748 -1.37094,0.0168 -2.4981,-0.41824 -2.5048,-0.96662 z m 6.49109,-0.063 c -0.35125,-0.55312 0.0608,-1.01421 0.91578,-1.02465 1.75135,-0.0213 2.01652,0.57377 0.644,1.44536 -0.50664,0.32173 -1.20855,0.13241 -1.55978,-0.42071 z m 7.45079,-1.48675 c -0.003,-0.21027 1.10085,-0.60765 2.45205,-0.88309 1.35118,-0.27542 2.22416,-0.11401 1.93992,0.35868 -0.50049,0.83235 -4.38255,1.29587 -4.39197,0.52441 z m 6.46116,-1.69093 c 0.33222,-0.55252 1.27704,-1.01279 2.09961,-1.02283 0.82257,-0.0101 1.22376,0.4338 0.89154,0.98632 -0.33223,0.55251 -1.27704,1.01279 -2.09961,1.02283 -0.82257,0.0101 -1.22376,-0.4338 -0.89154,-0.98632 z m -29.42104,-0.29911 c -9.22009,-1.28388 -9.19301,-1.27397 -7.8893,-2.88446 0.98606,-1.21809 2.51772,-1.42368 7.29096,-0.97865 3.32345,0.30985 6.70759,1.20647 7.52029,1.9925 1.29681,1.25425 1.27845,1.43157 -0.15006,1.449 -0.89522,0.011 -2.22325,0.18851 -2.95117,0.39461 -0.72792,0.20611 -2.44724,0.21825 -3.82072,0.027 z m 34.17647,-1.11886 c 0.15307,-0.4756 2.27216,-1.55931 4.70906,-2.40824 2.43692,-0.84893 4.98603,-2.00581 5.66471,-2.57083 0.9046,-0.75311 1.24005,-0.52901 1.25674,0.83962 0.0209,1.71674 1.00538,1.86407 12.23805,1.83142 19.16241,-0.0556 22.07397,0.0637 21.28538,0.87306 -1.04549,1.07295 -45.49204,2.48545 -45.15394,1.43497 z m -220.93226,2.26069 c -5.24627,-0.20856 -5.87611,-0.4775 -6.81151,-2.90844 -0.56688,-1.47326 -1.7761,-3.23047 -2.68715,-3.90493 -1.45227,-1.07511 -1.46469,-1.22861 -0.10079,-1.24527 2.22035,-0.0271 2.5337,-3.56139 2.43393,-27.45269 -0.0481,-11.51707 0.007,-27.22364 0.12342,-34.90349 0.30311,-20.07258 -0.39038,-79.51744 -0.93385,-80.0478 -0.25262,-0.24653 -1.92809,0.43249 -3.72328,1.50891 l -3.26397,1.95713 -0.17499,9.41331 c -0.24259,13.05002 -1.75906,13.445 -1.79698,0.46803 -0.0293,-10.03112 0.0962,-10.67931 2.43753,-12.58813 1.35763,-1.10683 3.49319,-2.45008 4.74567,-2.98498 1.25249,-0.53489 2.19676,-1.53581 2.0984,-2.22427 -0.49177,-3.4418 0.0801,-3.68856 3.97848,-1.71675 3.22576,1.6316 4.34567,1.78108 6.10044,0.81421 1.95191,-1.07548 2.10587,-1.81643 1.67613,-8.06637 -0.26027,-3.78517 -0.15943,-6.88594 0.22408,-6.89062 1.25759,-0.0154 1.61647,2.38612 1.19854,8.01997 -0.64542,8.70053 -0.15706,8.92659 18.6344,8.62561 32.45536,-0.51983 30.59678,-0.65955 32.12346,2.41487 0.74446,1.49918 1.26365,3.70939 1.15377,4.91158 -0.10989,1.2022 0.43426,3.36081 1.20919,4.79693 1.31128,2.43004 1.39815,2.10466 1.25269,-4.69166 l -0.1563,-7.30278 2.99115,-0.0365 c 2.35501,-0.0287 3.06569,0.44635 3.34158,2.23388 0.32604,2.11241 0.51576,2.02027 2.72613,-1.32406 1.30665,-1.97695 2.36311,-4.62667 2.34772,-5.88828 -0.0468,-3.83022 3.35691,-6.06321 9.35347,-6.13642 5.65902,-0.0691 8.53832,1.40244 8.5747,4.38223 0.0123,1.00135 1.11528,2.97157 2.45124,4.37827 1.88331,1.983 3.00815,2.40472 5.0067,1.87712 1.4177,-0.3743 3.25158,-0.4313 4.07528,-0.12674 2.75959,1.0205 -8.38674,15.31467 -13.19709,16.92408 -1.05351,0.35247 -1.11985,0.67503 -0.24681,1.19999 1.43016,0.85994 9.63292,-6.73798 13.56901,-12.56853 1.87033,-2.77052 2.96904,-3.65233 3.503,-2.81149 0.42789,0.6738 0.37012,2.01004 -0.12836,2.96944 -1.13305,2.1807 -1.13652,7.16512 -0.004,6.44624 0.46086,-0.29266 0.88825,-1.78276 0.94973,-3.31134 0.18921,-4.7038 0.75819,-8.30669 1.4187,-8.98353 0.3468,-0.35537 3.9488,-0.61733 8.00444,-0.58213 6.14574,0.0534 7.48844,-0.22496 8.06166,-1.67101 1.35206,-3.41068 4.34792,-18.84286 4.84159,-24.93978 l 0.50264,-6.2078 -28.29145,0.40579 c -55.87335,0.80145 -71.7763,0.74288 -71.17199,-0.26213 0.32461,-0.53988 2.24862,-0.93576 4.27556,-0.87976 5.90504,0.16318 8.32656,-0.19538 7.72431,-1.14376 -0.61619,-0.97034 -8.17721,-1.16199 -13.28236,-0.33667 -1.94575,0.31456 -3.22747,1.10081 -3.21682,1.9733 0.014,1.14903 -1.64916,1.47082 -8.00242,1.54837 -6.83181,0.0834 -7.97961,-0.14067 -7.74675,-1.51226 0.19703,-1.16059 -0.60245,-1.67298 -2.86335,-1.8351 -3.63761,-0.26084 -6.72824,1.12913 -4.29352,1.93096 0.81058,0.26694 2.59772,0.65689 3.97143,0.86656 1.37371,0.20966 -0.53014,0.47928 -4.23079,0.59914 -3.73058,0.12083 -6.72301,0.66217 -6.71626,1.21499 0.007,0.54838 -0.4365,1.00253 -0.98488,1.00922 -1.80596,0.022 -1.06491,-2.15729 0.91877,-2.70199 1.43625,-0.39439 2.10225,-1.7425 2.55564,-5.17314 0.33726,-2.55187 1.01005,-5.152552 1.49509,-5.779302 0.48504,-0.62675 4.44768,-2.21722 8.80586,-3.53438 6.88268,-2.08013 7.92036,-2.69023 7.89653,-4.64267 -0.0151,-1.2363 0.41785,-2.5306 0.96209,-2.87621 0.54424,-0.34561 0.97648,-1.69711 0.96054,-3.00332 -0.0159,-1.30622 0.4822,-2.69957 1.107,-3.09634 0.85147,-0.54071 24.95865,-1.21436 30.00745,-0.83854 0.41173,0.0307 0.76196,1.15092 0.77829,2.4895 0.0164,1.33859 0.40712,2.66071 0.86839,2.93807 0.46127,0.27735 8.10535,0.53137 16.98684,0.56447 15.36278,0.0572 16.25364,0.16972 18.31634,2.31234 1.19248,1.23869 2.7715,2.24479 3.50892,2.23579 0.95,-0.0116 1.15826,0.75033 0.71455,2.61429 -0.47434,1.9926 -0.29118,2.51375 0.75513,2.14863 0.75974,-0.26511 1.37087,-1.34074 1.35806,-2.39029 -0.0212,-1.73706 0.89329,-1.94495 10.193,-2.31716 9.32399,-0.37319 11.92437,-1.17525 9.1733,-2.82945 -0.56153,-0.33763 -0.75473,-1.05666 -0.42933,-1.59783 0.7614,-1.26626 3.4276,0.81254 3.45053,2.6903 0.0118,0.96007 1.44269,1.38567 4.75395,1.41394 9.61653,0.0821 9.72407,0.11169 9.7555,2.68617 0.0162,1.32252 0.47962,2.53033 1.02996,2.68402 1.45293,0.40577 5.40669,-6.38166 5.37202,-9.22217 -0.0236,-1.93444 3.67891,-7.35486 7.85353,-11.49738 0.27979,-0.27765 4.03907,-4.78363 8.35396,-10.01329 4.31488,-5.22966 8.73111,-10.45922 9.81385,-11.621251 1.88948,-2.027863 3.03662,-2.13588 28.54078,-2.687455 30.46907,-0.658951 26.42944,-1.774822 37.40227,10.331636 13.47346,14.86547 18.67389,21.32078 18.69694,23.2086 0.008,0.67321 0.92375,2.3508 2.03452,3.72797 1.11077,1.37719 2.68198,5.48248 3.49157,9.12287 0.80962,3.640412 1.73282,6.873452 2.05159,7.184522 0.65467,0.63889 35.39798,0.7099 37.24427,0.0762 0.6563,-0.22529 1.70206,-2.05891 2.32391,-4.074732 0.62186,-2.01582 1.59015,-4.25759 2.15175,-4.98171 1.25487,-1.61801 7.22022,-4.26861 9.67423,-4.29857 2.18277,-0.0266 3.07222,-2.57203 2.70404,-7.73836 -0.15111,-2.12059 0.006,-4.32334 0.35023,-4.89503 0.35632,-0.59259 4.18031,-1.04719 8.89569,-1.05752 7.23628,-0.0159 8.25604,0.20032 8.15352,1.72841 -0.095,1.4158 0.70034,1.73654 4.19991,1.69383 2.37442,-0.029 4.58893,-0.50476 4.92115,-1.05727 0.33223,-0.55252 -0.069,-0.99636 -0.89154,-0.98632 -0.82256,0.0101 -1.76333,-0.40339 -2.09059,-0.91874 -0.62952,-0.99131 19.52735,-0.94729 21.17972,0.0463 0.50198,0.30183 1.02038,2.92125 1.152,5.82092 0.26862,5.91778 1.34985,7.17025 7.56465,8.76262 4.37478,1.12092 9.14478,5.19206 8.41033,7.17813 -0.26531,0.71746 0.59859,2.594102 1.91977,4.170312 2.01308,2.40164 2.4219,4.00576 2.52394,9.90345 0.0796,4.59596 0.63784,7.70289 1.60927,8.95515 1.92293,2.47887 2.05178,9.35768 0.22538,12.03413 -1.97289,2.89116 -0.56295,7.74622 2.36339,8.13822 2.07204,0.27756 2.18609,0.77967 2.30019,10.12697 l 0.12005,9.83495 -2.73751,0.39274 -2.73749,0.39272 2.75851,1.32911 c 2.63423,1.26922 2.76256,1.65888 2.84786,8.64696 0.0803,6.57896 -0.10607,7.32022 -1.84592,7.34146 -2.80792,0.0343 -3.46439,1.83636 -0.79491,2.18211 l 2.26209,0.29298 0.40231,28.41527 c 0.22129,15.6284 0.22405,28.97839 0.006,29.66662 -0.2179,0.68823 -1.13318,1.2746 -2.03397,1.30304 -1.38033,0.0436 -1.32646,0.28114 0.34265,1.5113 1.71085,1.26091 1.94826,2.44135 1.74417,8.67249 -0.12995,3.96709 -0.20342,7.88561 -0.16329,8.70781 0.0402,0.8222 0.27442,5.30673 0.5206,9.96564 0.52315,9.90051 0.31126,10.9654 -2.18794,10.9959 -1.90969,0.0233 -3.58529,4.03795 -2.43883,5.8433 0.32609,0.51351 -0.0684,1.49625 -0.87666,2.18389 -0.80826,0.68761 -1.5261,0.85941 -1.59519,0.38175 -0.0691,-0.47766 -0.19426,-1.54073 -0.27814,-2.3624 -0.13341,-1.3069 -7.14339,-1.42471 -55.98893,-0.94096 -63.84653,0.63231 -60.35222,0.67031 -58.34392,-0.63392 1.11,-0.72083 1.4731,-2.98343 1.44062,-8.97712 -0.0238,-4.40735 -0.40828,-8.00892 -0.85425,-8.00348 -0.44597,0.005 -3.35806,2.39843 -6.4713,5.31774 -3.11325,2.91931 -7.21582,6.55434 -9.11683,8.07783 -1.90101,1.5235 -2.89479,2.8242 -2.20841,2.89047 0.68638,0.0663 1.69801,0.22716 2.24807,0.35756 0.55004,0.1304 2.12246,0.27948 3.49423,0.33129 1.37179,0.0519 2.49826,0.43071 2.50329,0.842 0.005,0.41128 -3.54287,0.79115 -7.8842,0.84414 -4.34132,0.053 -7.81937,0.027 -7.729,-0.0577 0.0904,-0.0848 4.0359,-3.076 8.76782,-6.64724 4.73193,-3.57124 9.96975,-8.27852 11.63962,-10.46062 1.66985,-2.1821 3.60658,-4.42316 4.30383,-4.98012 4.45193,-3.55626 13.79087,-23.07398 16.77008,-35.04832 1.64541,-6.61339 2.01913,-23.87456 0.69631,-32.16077 -1.10527,-6.92344 -5.39728,-19.34086 -8.2629,-23.90577 -1.27853,-2.03669 -3.23053,-5.43784 -4.33779,-7.55811 -4.50515,-8.62693 -29.66172,-30.16169 -35.15602,-30.09463 -0.72142,0.009 -2.39164,-0.7853 -3.71159,-1.76469 -2.60631,-1.93385 -18.1877,-5.94557 -22.87039,-5.88841 -1.59265,0.0194 -3.1785,-0.40994 -3.52411,-0.95418 -0.82106,-1.29294 12.42622,-1.4865 15.85215,-0.2316 1.62217,0.59419 2.74298,0.58051 3.11491,-0.038 0.33598,-0.5588 7.91354,-1.05571 17.9705,-1.17848 13.7424,-0.16775 17.38618,-0.48842 17.37347,-1.52893 -0.009,-0.72416 -0.99765,-5.53605 -2.19736,-10.69307 -1.19972,-5.15703 -2.45168,-11.04925 -2.78216,-13.09381 -0.33048,-2.04456 -1.15622,-4.166962 -1.83499,-4.716442 -0.79394,-0.64271 -20.69726,-0.86097 -55.80263,-0.61192 -48.19069,0.34188 -54.65794,0.56677 -55.33386,1.9241 -1.00472,2.017682 -2.72599,10.375022 -3.30096,16.027342 -0.25136,2.47113 -0.72062,6.6277 -1.04279,9.23682 -0.45194,3.65992 -0.27114,4.75988 0.79127,4.81403 0.75737,0.0386 12.03331,-0.0354 25.05766,-0.16453 13.02435,-0.12907 23.67811,0.0383 23.67505,0.3719 -0.003,0.33364 -4.10606,1.67817 -9.11776,2.98786 -5.01171,1.30967 -13.06949,4.40529 -17.90621,6.87912 -7.50732,3.83979 -9.20421,4.3605 -11.59746,3.55884 -1.54188,-0.51649 -6.12039,-0.76541 -10.17447,-0.55315 l -7.37105,0.38592 -0.0959,7.94454 c -0.0527,4.36951 0.38041,8.50443 0.96258,9.18874 0.77263,0.90817 0.27878,2.26995 -1.82869,5.04253 -4.60677,6.06066 -12.50228,22.73626 -13.53833,28.59339 -0.3175,1.79499 -0.95463,3.76031 -1.41582,4.36737 -1.44428,1.90108 -0.82285,26.29164 0.83572,32.80107 2.7501,10.79333 4.86632,16.84286 7.12074,20.35568 1.22237,1.90469 2.32129,3.97404 2.44206,4.59857 0.12075,0.62452 2.13948,3.95085 4.48607,7.39182 2.40285,3.52348 3.79049,6.42149 3.17672,6.63443 -0.68821,0.23878 -1.04757,3.83797 -0.97519,9.76701 l 0.1146,9.38891 -18.1962,0.22012 c -73.24283,0.8871 -110.06308,1.76165 -111.16781,2.64087 -0.84078,0.66913 -0.92087,1.37513 -0.246,2.1684 0.68626,0.80665 4.92356,1.09523 13.4857,0.91842 6.86676,-0.14157 12.4893,0.0929 12.49453,0.52134 0.005,0.42842 -0.77534,0.81533 -1.73461,0.85981 -10.79563,0.50055 -14.54303,0.57296 -19.48489,0.3765 z m 304.85052,-30.7093 c 0.28538,-0.89228 -0.24891,-0.88135 -2.21884,0.0455 -1.98477,0.93376 -2.87297,0.94917 -3.77842,0.0656 -0.65102,-0.63533 -1.65461,-1.13446 -2.23018,-1.10919 -0.57557,0.0253 -0.005,0.89323 1.26878,1.9288 2.41819,1.96655 6.19357,1.46167 6.95866,-0.93057 z m -16.72708,1.16546 c -0.006,-0.49412 -1.57578,-0.83489 -3.48832,-0.75731 -2.1015,0.0853 -2.98486,0.4455 -2.23259,0.91048 1.70897,1.05635 5.73436,0.94857 5.72091,-0.15319 z m 89.68326,-5.29998 c -0.007,-0.54838 -0.45746,-0.71429 -1.0017,-0.36867 -0.54424,0.3456 -0.98405,1.07704 -0.97735,1.62542 0.007,0.54838 0.45746,0.71429 1.0017,0.36868 0.54424,-0.34561 0.98404,-1.07706 0.97735,-1.62543 z m -91.21303,-2.70475 c 0.9275,0.75083 1.44174,0.79349 1.43351,0.1189 -0.0244,-1.99928 -4.15801,-2.4248 -5.85245,-0.60246 -1.51178,1.62589 -1.46923,1.65867 0.67993,0.52359 1.77019,-0.93494 2.62226,-0.94406 3.73901,-0.0397 z m 17.38445,-0.22932 c -0.0177,-1.4496 -3.10158,-2.01681 -5.06962,-0.93245 -1.05013,0.57861 -1.90613,1.14837 -1.90224,1.26614 0.0223,0.67541 6.98011,0.34239 6.97186,-0.33369 z M 213.43806,195.88445 c 1.48055,-2.8495 0.45274,-2.37492 -1.50579,0.6953 -0.92495,1.44997 -1.19266,2.32572 -0.59488,1.94612 0.59775,-0.3796 1.54306,-1.56823 2.10067,-2.64142 z m 4.80881,-12.08003 c -0.0212,-1.74304 -0.98115,-0.82295 -2.48761,2.38453 l -1.53095,3.2596 2.01469,-2.37877 c 1.10808,-1.30833 2.00982,-2.77774 2.00387,-3.26536 z m 0.39751,-3.96835 c -0.32736,-0.51551 -1.01699,-0.66945 -1.5325,-0.34208 -0.51552,0.32736 -0.66945,1.01699 -0.34209,1.53251 0.32737,0.51551 1.017,0.66945 1.53252,0.34207 0.51551,-0.32736 0.66945,-1.01699 0.34207,-1.5325 z m 1.80126,-10.45921 c 0.32965,-0.89145 0.15762,-1.28963 -0.40331,-0.93342 -0.538,0.34165 -0.97305,1.04339 -0.96674,1.5594 0.0175,1.43418 0.72831,1.10942 1.37005,-0.62598 z m -15.458,-9.79036 c -0.003,-0.24182 -0.45404,-0.4342 -1.00242,-0.42751 -0.54838,0.007 -0.99125,0.48733 -0.98416,1.06807 0.007,0.58075 0.45818,0.77312 1.00242,0.42751 0.54424,-0.34561 0.98711,-0.82624 0.98416,-1.06807 z m -6.4862,-0.36056 c -2.75875,-1.1458 -3.73439,-1.13388 -2.99115,0.0365 0.34561,0.54424 1.61103,0.946 2.81205,0.89278 2.10531,-0.0933 2.11174,-0.12662 0.1791,-0.92929 z m 179.57989,-10.91766 -0.31153,-7.72449 -8.72771,-0.18158 c -4.80025,-0.0999 -8.69322,0.17203 -8.65106,0.6042 0.0422,0.43219 3.44709,3.65817 7.5665,7.16885 4.11943,3.51068 7.49401,6.72285 7.49908,7.13815 0.005,0.4153 0.6678,0.74706 1.47273,0.73723 1.17945,-0.0144 1.40304,-1.5172 1.15199,-7.74236 z m -179.66508,3.9383 c -0.34562,-0.54424 -0.82625,-0.98712 -1.06807,-0.98416 -0.24183,0.003 -0.43421,0.45404 -0.42751,1.00242 0.007,0.54838 0.48732,0.99125 1.06807,0.98416 0.58074,-0.007 0.77311,-0.45818 0.42751,-1.00242 z m -14.4801,-1.69554 c -0.006,-0.48123 -0.65485,-1.39644 -1.44218,-2.03379 -1.17458,-0.95085 -1.33073,-0.7919 -0.87007,0.88573 0.54853,1.99762 2.33344,2.88385 2.31225,1.14806 z m 293.72073,-21.63432 c 0.11348,-4.65073 0.38557,-8.63953 0.60465,-8.86403 0.21906,-0.22449 3.10687,-0.38 6.41732,-0.34558 l 6.01902,0.0625 -0.0723,-5.92002 c -0.0786,-6.43669 -0.18093,-6.54433 -7.08315,-7.44869 -1.91616,-0.25107 -27.60344,-0.43366 -57.08281,-0.40577 l -53.59885,0.0507 0.029,2.38033 c 0.016,1.30919 0.6851,4.82251 1.48693,7.80735 0.80182,2.98487 1.79411,7.44225 2.20508,9.9053 0.41096,2.46305 1.22616,6.35729 1.81154,8.65387 l 1.06432,4.1756 48.99641,-0.7979 48.99644,-0.7979 0.20631,-8.45585 z m 7.30817,6.83876 c 5.29222,-2.91596 5.54246,-11.34962 0.40846,-13.76611 -4.22844,-1.99026 -5.61951,-0.14524 -5.52823,7.33228 0.0943,7.72985 0.9092,8.75382 5.11977,6.43383 z m -1.67,-4.25262 c -0.99726,-2.5069 -0.11737,-6.16659 1.48734,-6.18618 2.05468,-0.025 2.53581,4.80883 0.63921,6.42236 -1.24951,1.06303 -1.62637,1.02117 -2.12655,-0.23618 z m 9.93781,0.87138 c 0.96215,-3.7709 0.57423,-7.37747 -0.92397,-8.59029 -1.20784,-0.97776 -1.41261,-0.62844 -1.25264,2.13689 0.10516,1.81814 -0.14855,4.76783 -0.56382,6.55486 -0.61809,2.65985 -0.48853,3.14312 0.7144,2.6646 0.80817,-0.32151 1.71989,-1.56623 2.02603,-2.76606 z m -292.04454,1.8889 c -0.34562,-0.54424 -1.05059,-0.98437 -1.5666,-0.97807 -0.51601,0.006 -0.93273,0.46013 -0.92603,1.00851 0.007,0.54838 0.71166,0.98851 1.5666,0.97807 0.85492,-0.0105 1.27164,-0.46426 0.92603,-1.00851 z m 282.86427,-32.28486 c -0.84002,-1.32281 -4.55805,-1.38911 -4.54208,-0.081 0.0175,1.4335 3.40605,2.99434 4.37525,2.01532 0.46748,-0.47222 0.54256,-1.34266 0.16683,-1.93434 z m -20.94046,1.09959 c 0.35432,-0.58927 0.44036,-1.27036 0.19118,-1.51351 -0.86255,-0.84176 -25.45671,-0.8665 -26.77879,-0.0269 -2.04748,1.30022 0.42589,1.83927 9.60096,2.09241 4.38915,0.12109 9.86175,0.28751 12.16134,0.36981 2.29959,0.0823 4.47098,-0.33249 4.82531,-0.92177 z m -258.04224,1.47121 c 0.258,-0.81934 -0.66726,-1.23836 -2.68022,-1.21379 -2.12589,0.0259 -3.06835,0.51931 -3.05517,1.59933 0.0232,1.90002 5.12364,1.55716 5.73539,-0.38554 z m 25.97332,-1.99844 c 0.20589,-1.95769 -0.0969,-2.644512 -1.0256,-2.32667 -0.72475,0.24802 -1.44917,1.7009 -1.60984,3.2286 -0.20588,1.95769 0.0969,2.64451 1.02561,2.32666 0.72475,-0.24802 1.44916,-1.70089 1.60983,-3.22859 z m 3.24661,-0.90731 c -0.799,-0.77974 -1.09702,-0.51735 -1.07911,0.95009 0.0322,2.63595 1.44358,4.01807 1.86086,1.82225 0.17717,-0.93231 -0.17462,-2.17986 -0.78175,-2.77234 z m -38.98084,0.2826 c -0.0168,-1.37094 -0.4791,-2.487152 -1.02748,-2.480462 -0.54838,0.007 -0.98337,1.133852 -0.96663,2.504802 0.0168,1.37095 0.4791,2.48715 1.02748,2.48046 0.54838,-0.007 0.98336,-1.13386 0.96663,-2.5048 z m -32.90878,-0.0969 c -0.007,-0.54838 -0.46084,-0.99157 -1.00922,-0.98488 -0.54838,0.007 -0.99157,0.46084 -0.98488,1.00922 0.007,0.54838 0.46085,0.99158 1.00922,0.98488 0.54838,-0.007 0.99158,-0.46084 0.98488,-1.00922 z m 300.86169,-3.546232 c 0.68463,-0.0779 1.23656,-0.81464 1.22652,-1.63719 -0.0101,-0.82257 -0.57931,-1.50596 -1.26504,-1.51863 -9.26434,-0.17123 -28.05322,0.43449 -28.52672,0.91973 -0.34058,0.34903 0.10519,1.14998 0.99064,1.7799 1.3174,0.93723 20.54988,1.25541 27.5746,0.45619 z m 19.56119,-0.82585 c -0.62248,-1.56478 -4.19084,-3.02223 -5.10528,-2.08519 -0.94036,0.96361 1.88679,3.58231 3.84169,3.55845 1.20526,-0.0148 1.64149,-0.52331 1.26359,-1.47326 z m -354.40204,1.19652 c 1.25078,-1.22507 1.02702,-1.40818 -1.68033,-1.37514 -4.17351,0.0509 -6.26655,0.97438 -6.24481,2.755152 0.0221,1.80802 5.67523,0.82361 7.92514,-1.380012 z m 35.77148,-0.7185 c 1.66492,-1.08388 -1.9336,-1.95694 -6.34604,-1.53964 -1.64348,0.15543 -5.81814,0.37501 -9.277,0.48795 -3.90957,0.1277 -6.0511,0.57973 -5.66046,1.19489 0.7643,1.20355 19.40747,1.07812 21.2835,-0.1432 z m 22.58675,-0.39233 c -0.34561,-0.54424 -0.82624,-0.98711 -1.06806,-0.98416 -0.24184,0.003 -0.43421,0.45404 -0.42751,1.00241 0.007,0.54838 0.48732,0.99125 1.06806,0.98416 0.58074,-0.007 0.77312,-0.45817 0.42751,-1.00241 z m 30.36674,-3.91975 c -0.01,-0.7902 -0.46622,-1.43125 -1.0146,-1.42456 -0.54836,0.007 -0.98576,0.936 -0.97198,2.06512 0.0138,1.12912 0.47035,1.77017 1.01459,1.42456 0.54424,-0.34561 0.98163,-1.27492 0.97199,-2.06512 z m 12.07131,0.11473 c -1.29534,-1.26409 -2.58098,-0.25918 -1.61486,1.2622 0.37424,0.58932 1.13376,0.78363 1.68782,0.43179 0.67584,-0.42919 0.65184,-0.98667 -0.0729,-1.69399 z m 7.38001,0.37149 c -0.0238,-1.95181 -1.96458,-1.76271 -2.32251,0.22629 -0.21844,1.21387 0.13058,1.70235 1.00064,1.40048 0.73483,-0.25496 1.32969,-0.98701 1.32187,-1.62677 z m 238.30534,-2.07803 c -0.34561,-0.54424 -1.07705,-0.98405 -1.62542,-0.97736 -0.54838,0.007 -0.71429,0.45746 -0.36868,1.0017 0.34561,0.54424 1.07705,0.98405 1.62543,0.97735 0.54837,-0.007 0.71428,-0.45745 0.36867,-1.00169 z m -251.7706,1.82689 c -0.0143,-1.16763 -1.46316,-0.85941 -1.8649,0.39672 -0.19811,0.61943 0.1425,0.95183 0.75692,0.73866 0.61441,-0.21318 1.11301,-0.72409 1.10798,-1.13538 z m 19.94102,-0.24342 c -0.0143,-1.16764 -1.46316,-0.85942 -1.8649,0.39671 -0.19811,0.61944 0.1425,0.95184 0.75692,0.73866 0.61442,-0.21316 1.11301,-0.72408 1.10798,-1.13537 z m 209.65657,-5.20257 c 0.44298,-0.0598 0.52265,-0.55416 0.17703,-1.0984 -0.76732,-1.20832 -9.16137,-1.22395 -9.88626,-0.0185 -1.13837,1.89322 1.61917,2.21042 9.70923,1.1168 z m -91.26672,-2.28463 c 0.15449,-1.44983 -0.0919,-3.26155 -0.54775,-4.02602 -1.92834,-3.23455 -23.98483,-27.15123 -26.34979,-28.572065 -0.7407,-0.445007 -12.8,-0.522168 -26.79841,-0.171469 l -25.45166,0.637634 -2.12057,3.01749 c -1.16631,1.65961 -4.17987,5.28632 -6.69681,8.05934 -14.12337,15.56032 -18.70547,22.70205 -15.71818,24.49853 0.55874,0.33601 24.05282,0.29181 52.20908,-0.0982 l 51.19318,-0.70919 0.28091,-2.63606 z m -197.861,4.13992 c 1.20264,-0.47842 1.39456,-1.02181 0.6641,-1.88039 -0.71664,-0.84239 -4.6332,-1.12608 -12.95121,-0.93815 -11.77092,0.26594 -13.78185,0.66959 -12.60087,2.5293 0.6816,1.07333 22.28576,1.32442 24.88798,0.28924 z M 318.30173,292.9292 c -0.0181,-1.48867 4.79326,-2.92284 10.41428,-3.10427 4.71341,-0.15217 4.60045,2.93923 -0.13818,3.78185 -6.51014,1.15762 -10.25672,0.91058 -10.2761,-0.67758 z m 126.469,-1.2403 c -2.06455,-0.54687 -2.10563,-0.64484 -0.34854,-0.83135 1.89247,-0.20088 11.38401,-0.36316 16.20111,-0.27705 1.2343,0.022 2.24951,0.47607 2.25601,1.00887 0.0129,1.05422 -14.20929,1.13234 -18.10858,0.0995 z m 30.00223,-0.25348 -2.42899,-0.56254 2.48705,-0.48711 c 1.36787,-0.26792 4.06053,-0.24982 5.98369,0.0402 l 3.49663,0.52731 -3.55469,0.52235 c -1.95508,0.28729 -4.64774,0.26919 -5.98369,-0.0402 z m -331.95642,3.29161 c -0.005,-0.4387 2.23363,-0.82502 4.97553,-0.8585 2.74188,-0.0335 4.98963,0.29809 4.99499,0.73679 0.005,0.43871 -2.23363,0.82503 -4.97552,0.8585 -2.7419,0.0335 -4.98964,-0.29808 -4.995,-0.73679 z m 11.46366,-0.33937 c -0.34561,-0.54424 -0.15324,-0.99533 0.42751,-1.00242 0.58073,-0.007 1.06137,0.43578 1.06807,0.98416 0.007,0.54838 -0.18569,0.99947 -0.42752,1.00242 -0.24182,0.003 -0.72245,-0.43992 -1.06806,-0.98416 z m 6.89699,0.0518 c 0.28692,-0.47718 2.31636,-0.88949 4.50988,-0.91626 2.1935,-0.0268 3.75344,0.34172 3.46652,0.81889 -0.28691,0.47717 -2.31635,0.8895 -4.50987,0.91628 -2.19351,0.0267 -3.75345,-0.34174 -3.46653,-0.81891 z m 11.54966,-0.17827 c -0.006,-0.4941 1.53193,-0.87347 3.4177,-0.84305 1.88578,0.0304 3.21025,0.41859 2.94328,0.86258 -0.66788,1.11075 -6.3474,1.09331 -6.36098,-0.0195 z m 8.97225,-0.20822 c -0.007,-0.54838 0.68732,-1.00559 1.54226,-1.01603 0.85492,-0.0105 1.28259,0.43308 0.95037,0.9856 -0.33223,0.55252 -1.02623,1.00973 -1.54226,1.01603 -0.51601,0.006 -0.94368,-0.43723 -0.95037,-0.9856 z m 4.53512,0.0214 c -0.34073,-0.53656 8.19177,-1.04573 20.92823,-1.24888 13.48537,-0.21508 21.28757,0.0162 20.92441,0.62011 -0.74841,1.24468 -41.07678,1.85054 -41.85264,0.62877 z m 249.98774,-2.73371 c 0.32726,-0.33535 1.18679,-0.38126 1.91006,-0.10199 0.79926,0.30857 0.56589,0.54772 -0.59503,0.60973 -1.05054,0.0561 -1.6423,-0.17234 -1.31503,-0.5077 z m 28.91448,-0.35296 c 0.32726,-0.33535 1.18679,-0.38126 1.91006,-0.102 0.79926,0.30857 0.56589,0.54773 -0.59503,0.60974 -1.05054,0.0561 -1.6423,-0.17235 -1.31503,-0.5077 z m -179.71259,-0.22497 c -6.39687,-2.21259 -8.1673,-3.56839 -6.24976,-4.7861 1.97653,-1.25515 12.33036,2.14384 14.00255,4.59678 1.28979,1.89199 1.24651,2.09996 -0.43444,2.08808 -1.02678,-0.007 -4.32005,-0.86169 -7.31835,-1.89876 z m 51.23759,-0.6827 c -0.97574,-1.53652 0.49496,-2.71907 6.05958,-4.87239 8.73564,-3.38038 10.38759,-0.4456 1.92557,3.42087 -6.17346,2.82079 -7.01812,2.97433 -7.98515,1.45152 z m -21.64921,-1.21478 c -0.13925,-0.12937 -3.61989,-0.33064 -7.73477,-0.44721 -25.98159,-0.7361 -52.93577,-18.80506 -64.11633,-42.9809 -5.87462,-12.70275 -8.5577,-30.15968 -6.50166,-42.30161 0.37225,-2.19839 0.8783,-5.34574 1.12454,-6.99413 1.42146,-9.51548 14.5021,-31.82249 21.97305,-37.47165 1.93768,-1.46516 4.8794,-3.83812 6.53716,-5.27323 4.65975,-4.0339 18.95551,-10.79659 27.1077,-12.82345 8.46145,-2.10376 26.00821,-2.58006 31.46098,-0.85399 1.93025,0.61099 3.92644,0.84618 4.436,0.52259 1.22756,-0.77953 15.10872,4.4106 19.32773,7.22658 15.82358,10.56151 23.49741,18.30146 29.7482,30.00455 10.36093,19.39833 12.12712,39.66955 5.25088,60.26647 -4.04233,12.10832 -14.17238,26.26519 -24.59271,34.36867 -7.01359,5.45419 -19.61741,12.02276 -26.85381,13.99506 -4.53412,1.23579 -16.70262,3.19378 -17.16696,2.76229 z m -32.36804,-16.98569 c -0.34561,-0.54424 -1.16267,-0.97614 -1.81568,-0.95977 -0.71339,0.0176 -0.58562,0.40825 0.3201,0.97803 1.93057,1.21448 2.27572,1.21027 1.49558,-0.0183 z m 71.71903,-8.66049 c -0.31073,-0.30324 -1.11151,0.013 -1.77953,0.70259 -0.96535,0.99664 -0.84943,1.10976 0.56497,0.55133 0.97873,-0.38642 1.52529,-0.95069 1.21456,-1.25392 z m 8.36117,-7.49212 2.26226,-3.13933 -3.61022,2.82402 c -1.98563,1.55321 -3.60557,3.20534 -3.59989,3.67143 0.0195,1.5933 2.68325,-0.21356 4.94785,-3.35612 z m -98.56571,2.65561 c -0.52866,-0.95948 -1.99391,-2.62437 -3.25609,-3.69975 -1.87949,-1.60133 -1.78068,-1.28465 0.54596,1.74959 3.00628,3.9206 4.31453,4.862 2.71013,1.95016 z m 62.68316,-1.06218 c -0.007,-0.58074 -0.45818,-0.77312 -1.00241,-0.4275 -0.54424,0.34561 -0.98712,0.82623 -0.98416,1.06807 0.003,0.24182 0.45404,0.43419 1.00241,0.4275 0.54837,-0.007 0.99125,-0.48732 0.98416,-1.06807 z m 1.25772,-12.95515 c 5.55209,-2.81798 7.1067,-4.26731 11.37296,-10.60261 5.17488,-7.6846 5.55943,-8.51582 3.93043,-8.49594 -0.54838,0.007 -0.99072,0.53066 -0.98298,1.16438 0.008,0.63371 -1.11214,2.66671 -2.4886,4.51777 -3.00983,4.04761 -5.36976,4.27844 -14.46575,1.41488 -6.79469,-2.13905 -10.49524,-4.25188 -15.61799,-8.91704 -2.82684,-2.57433 -3.07551,-3.23883 -2.40006,-6.41377 1.42691,-6.70716 6.78184,-15.85817 13.53321,-23.12683 l 6.76705,-7.28555 3.94875,2.78761 c 5.74922,4.05863 10.14812,11.32367 11.79017,19.47212 0.76421,3.79228 1.09039,8.02055 0.72484,9.39617 -0.36555,1.37561 -0.68476,3.39884 -0.70936,4.49605 -0.0427,1.904 0.003,1.90998 1.00826,0.13102 1.71589,-3.03739 1.68961,-13.275 -0.0485,-18.8899 -2.36282,-7.63303 -6.14873,-13.28904 -11.82257,-17.66248 -8.57588,-6.6104 -10.17948,-7.14247 -21.20921,-7.03729 -9.45035,0.0901 -10.281,0.27172 -15.91273,3.47856 -7.06502,4.02297 -13.28219,10.51051 -16.36662,17.07833 -1.68432,3.5865 -2.3099,6.99865 -2.52483,13.77124 -0.27255,8.58833 -0.13511,9.27619 2.9816,14.92159 3.9478,7.15075 7.01105,10.43773 13.51059,14.49732 10.5873,6.61282 23.56882,7.09686 34.98134,1.30437 z m -81.85061,-21.6313 c -0.33537,-0.32726 -0.56382,0.2645 -0.5077,1.31502 0.062,1.16094 0.30117,1.3943 0.60973,0.59504 0.27924,-0.72327 0.23333,-1.58279 -0.10199,-1.91006 z m 0.13427,-5.25771 c -0.14544,-1.6436 -0.66567,-2.98347 -1.15608,-2.97748 -0.4904,0.006 -0.61064,0.71726 -0.26719,1.58062 0.34345,0.86335 0.63222,2.20604 0.64171,2.98377 0.01,0.77771 0.24873,1.4112 0.53162,1.40774 0.2829,-0.003 0.39537,-1.35105 0.24994,-2.99465 z m 123.53722,-35.67875 c -0.99663,-0.96534 -1.10976,-0.84943 -0.55133,0.56497 0.38643,0.97874 0.95069,1.5253 1.25393,1.21457 0.30323,-0.31073 -0.013,-1.11151 -0.7026,-1.77954 z m -110.98904,-7.1047 c 2.40838,-3.61453 2.55351,-4.04057 0.59695,-1.75239 -2.60174,3.04272 -4.82049,6.54064 -4.1435,6.53238 0.20051,-0.002 1.79647,-2.15345 3.54655,-4.77999 z m 108.31508,2.41728 c -0.3456,-0.54424 -0.82624,-0.98712 -1.06806,-0.98416 -0.24183,0.003 -0.43421,0.45404 -0.42751,1.00242 0.007,0.54836 0.48733,0.99124 1.06806,0.98415 0.58075,-0.007 0.77313,-0.45817 0.42751,-1.00241 z m -10.6197,-12.21555 c -0.005,-0.44208 -9.86115,-7.71221 -12.07513,-8.90727 -2.76725,-1.49368 0.28952,1.168 6.04748,5.26585 5.75469,4.09554 6.03526,4.26503 6.02765,3.64142 z M 277.767,158.25834 c -0.007,-0.54838 -0.43437,-0.99189 -0.95038,-0.9856 -0.51601,0.006 -1.21003,0.46351 -1.54225,1.01603 -0.33223,0.55252 0.0954,0.99603 0.95038,0.9856 0.85493,-0.0105 1.54894,-0.46765 1.54225,-1.01603 z m -9.95159,124.207 c -5.52277,-3.71834 -6.34364,-4.82089 -4.21861,-5.66624 2.5257,-1.00474 12.33825,6.29506 11.14022,8.28748 -0.78405,1.30394 -1.48706,1.03771 -6.92161,-2.62124 z m -164.77603,2.82518 c -0.4744,-0.95402 -0.78686,-3.9792 -0.69437,-6.72262 0.49101,-14.56425 -0.31022,-46.73261 -1.2044,-48.35549 -1.638,-2.97281 -1.471701,-21.1999 0.24137,-26.45551 0.82612,-2.53452 1.41231,-5.58634 1.30263,-6.78185 -0.63709,-6.94424 -0.13764,-26.60578 0.67611,-26.61571 0.59713,-0.007 0.94127,13.48717 0.92159,36.13724 -0.0396,45.59129 0.10499,65.78973 0.48005,67.05581 0.64361,2.17258 0.5198,13.44707 -0.1478,13.45946 -0.39196,0.007 -1.10079,-0.76733 -1.57518,-1.72133 z m 250.02239,-3.98932 c -0.0203,-1.66654 7.58773,-7.38226 9.86333,-7.41004 2.41069,-0.0294 1.67244,2.0941 -1.66372,4.78561 -4.99346,4.02855 -8.17006,5.04527 -8.19961,2.62443 z m -97.48191,-2.87294 c -3.44289,-2.55535 -6.27723,-4.99002 -6.29855,-5.41036 -0.0213,-0.42034 2.90561,1.49205 6.50426,4.24973 5.6771,4.35041 7.31596,5.86301 6.30352,5.81787 -0.1372,-0.006 -3.06634,-2.10187 -6.50923,-4.65724 z m -0.39496,-5.47056 c -4.30771,-3.70077 -6.08821,-6.28612 -5.47368,-7.94795 0.32222,-0.8713 1.19227,-1.35994 1.93347,-1.08585 1.96719,0.72747 8.62557,9.34175 8.01087,10.36407 -0.80089,1.33196 -1.67436,1.07204 -4.47066,-1.33027 z m 111.74538,-2.28322 c 0.0117,-0.72592 1.44227,-3.0096 3.17896,-5.07483 2.34214,-2.78521 3.53892,-3.52226 4.6341,-2.85397 1.22883,0.74985 0.96953,1.54365 -1.5458,4.73248 -3.09201,3.9199 -6.30544,5.55876 -6.26726,3.19632 z m -124.8448,-13.40743 c -3.06903,-4.12964 -3.74624,-6.25199 -2.28995,-7.17677 1.29636,-0.82324 2.82774,0.60735 5.12112,4.78406 4.02758,7.33506 2.07085,8.98875 -2.83117,2.39271 z m 135.02517,1.08713 c -0.85464,-2.14839 4.16218,-9.61698 6.47896,-9.64527 2.66259,-0.0325 2.52464,0.81731 -1.0265,6.32337 -3.14235,4.87222 -4.50538,5.70265 -5.45246,3.3219 z m 7.93118,-13.62348 c -0.88989,-1.40134 0.28146,-6.90628 2.06417,-9.70087 1.91094,-2.99561 2.6821,-12.35249 2.22431,-26.989 -0.32332,-10.33781 -0.15976,-12.09144 1.08505,-11.63112 2.79985,1.03537 4.79716,12.90025 2.73545,16.24986 -0.57654,0.93669 -0.50885,1.9413 0.18581,2.75784 1.51894,1.7854 0.51362,13.34812 -1.27789,14.6979 -0.77112,0.58099 -1.42669,2.40286 -1.45683,4.04861 -0.1225,6.6874 -3.70274,13.49157 -5.56007,10.56678 z m -150.59607,-3.67773 c -1.97836,-5.59517 -1.63869,-7.95991 0.7802,-5.4316 1.44066,1.50584 3.68607,7.2605 3.71362,9.51751 0.0413,3.3844 -2.7497,0.84673 -4.49382,-4.08591 z m -3.01556,-11.17852 c -0.25819,-0.40819 -0.82246,-2.98156 -1.25397,-5.71859 -0.4315,-2.73703 -0.93506,-5.75988 -1.11903,-6.71744 -0.51701,-2.69097 3.21571,-2.25166 3.83831,0.45175 1.61138,6.99675 0.60192,15.25272 -1.46531,11.98428 z m -2.22432,-19.91684 c -0.90883,-1.47885 1.5904,-11.23791 2.88199,-11.25368 1.68899,-0.0206 1.88635,9.07337 0.23367,10.76691 -1.35308,1.38651 -2.45674,1.55896 -3.11566,0.48677 z m 158.2779,-17.92177 c -0.80828,-1.51735 -1.8115,-4.46603 -2.22936,-6.55261 -0.65292,-3.26021 -0.51934,-3.74789 0.94972,-3.46735 1.78461,0.34081 6.05205,10.29909 5.09534,11.8902 -0.95595,1.58982 -2.33179,0.91546 -3.8157,-1.87024 z m -154.74942,-1.90481 c 0.87993,-5.02836 2.52516,-8.4182 4.095,-8.43737 1.81715,-0.0222 1.70938,2.61722 -0.31516,7.71792 -2.1484,5.41282 -4.68565,5.89574 -3.77984,0.71945 z m 147.02223,-15.70597 c -1.71849,-2.48048 -3.13148,-5.07848 -3.13996,-5.77334 -0.008,-0.69486 -2.6961,-3.60231 -5.97247,-6.46102 -6.25245,-5.4554 -8.08816,-8.66869 -5.53295,-9.68516 2.19456,-0.87301 10.61537,8.33104 9.86883,10.78675 -0.42993,1.41426 0.14189,2.13196 2.33347,2.92876 2.86963,1.04332 7.33825,7.1439 7.37393,10.0669 0.039,3.19627 -1.94518,2.44664 -4.93085,-1.86289 z m -140.94966,3.192 c -0.3584,-1.30525 0.49643,-3.66339 2.35061,-6.48444 3.34912,-5.09549 4.58173,-6.10182 5.89913,-4.81619 0.57932,0.56535 -0.55841,3.29664 -2.96972,7.1292 -2.14984,3.41701 -4.0906,6.21497 -4.31279,6.21769 -0.2222,0.003 -0.65744,-0.91811 -0.96723,-2.04626 z m 10.07849,-16.31078 c -0.009,-0.71127 1.75685,-3.06694 3.9234,-5.23482 2.85207,-2.8538 4.24394,-3.6442 5.04342,-2.864 2.17338,2.12094 -3.32354,9.25183 -7.20647,9.34858 -0.95951,0.0238 -1.75167,-0.53848 -1.76035,-1.24976 z m -3.02351,-2.61327 c -0.0209,-1.71812 8.68574,-10.6151 9.55652,-9.76534 0.37067,0.36173 -1.62432,3.00047 -4.43332,5.86383 -2.809,2.86338 -5.11443,4.61907 -5.1232,3.90151 z m 111.51162,-8.54322 c -6.90091,-4.018 -9.50621,-7.70517 -5.47911,-7.75433 2.02581,-0.0247 10.51423,6.00659 10.53226,7.48353 0.0272,2.22958 -1.54432,2.31379 -5.05315,0.2708 z m -96.07126,0.46521 c -1.06051,-1.67001 8.97163,-8.92965 10.40583,-7.53005 1.66798,1.62775 -0.083,4.11271 -4.42559,6.28075 -4.71347,2.3532 -5.21296,2.45755 -5.98024,1.2493 z m -2.63139,-4.58855 c 0.67263,-0.83089 1.44731,-1.51347 1.7215,-1.51681 0.27419,-0.003 -0.0519,0.67374 -0.72444,1.50465 -0.67263,0.83089 -1.4473,1.51346 -1.72149,1.5168 -0.27419,0.003 0.0519,-0.67373 0.72443,-1.50464 z m 86.71381,-3.48678 c -0.82804,-0.43822 -4.09517,-1.56668 -7.26031,-2.50769 -4.44374,-1.32113 -5.76022,-2.1567 -5.77867,-3.66769 -0.0195,-1.60331 0.47264,-1.8635 2.72472,-1.44032 5.55077,1.04302 11.98313,4.33671 12.55801,6.43031 0.60969,2.22041 0.16041,2.45778 -2.24375,1.18539 z m -68.08111,-0.82475 c -1.20894,-1.17977 -0.87752,-2.11591 0.97572,-2.75614 0.95578,-0.33018 3.52413,-1.3046 5.70747,-2.16536 4.94905,-1.95113 5.46061,-1.96538 5.48273,-0.15279 0.016,1.30618 -2.75931,3.48945 -5.43243,4.27365 -4.02189,1.1799 -6.09259,1.42612 -6.73349,0.80066 z m 17.14534,-5.6133 c -1.34006,-0.85698 -1.34272,-1.07523 -0.0239,-1.96415 0.81597,-0.55003 2.60512,-1.02554 3.97589,-1.05671 1.37077,-0.0312 4.17144,-0.35531 6.22371,-0.72032 3.06265,-0.54471 3.73502,-0.36662 3.75162,0.99368 0.0235,1.92921 -0.737,2.24467 -7.44131,3.08651 -2.73811,0.3438 -5.65677,0.19126 -6.48594,-0.33901 z m 23.18658,0.03 c -1.90709,-0.22627 -3.69278,-1.19893 -4.33246,-2.35988 -1.04812,-1.90225 -0.85608,-1.9552 5.21642,-1.4382 8.9788,0.76442 10.99636,1.27043 10.56182,2.64888 -0.39855,1.26432 -5.85661,1.81232 -11.44578,1.1492 z m -208.99053,0.59082 c -1.60544,-1.56672 -0.63038,-7.13441 1.73748,-9.92119 1.3682,-1.61028 2.28218,-3.71012 2.03105,-4.66631 -0.25112,-0.95619 0.0157,-2.03845 0.59293,-2.40501 0.60488,-0.38413 0.76341,-0.19065 0.37419,0.45667 -0.94063,1.56434 3.05394,5.22328 4.90047,4.48872 0.83109,-0.33062 1.51714,-0.10444 1.52455,0.5026 0.007,0.60706 -0.90677,1.11496 -2.0315,1.12868 -2.36557,0.0289 -5.18921,5.8304 -4.24485,8.72158 0.54447,1.66692 0.50109,1.6644 -0.61382,-0.0356 -0.65984,-1.00613 -0.95528,-3.13403 -0.65655,-4.72869 0.29874,-1.59468 0.12149,-2.89425 -0.39389,-2.88796 -1.70769,0.0208 -3.09446,4.0982 -2.40402,7.06823 0.67778,2.91563 0.46003,3.52356 -0.81604,2.27827 z m 8.68789,-0.86452 c -0.96716,-2.43123 -0.0371,-6.02084 1.64864,-6.36326 2.00559,-0.40736 3.18883,3.35284 1.8599,5.91052 -1.14554,2.20473 -2.73024,2.40922 -3.50854,0.45274 z m 185.00769,-6.79934 c -0.007,-0.55883 1.40838,-1.03339 3.14492,-1.05459 3.63053,-0.0444 3.50429,0.39253 -0.39866,1.37938 -1.62296,0.41036 -2.73891,0.27838 -2.74626,-0.32479 z m 9.47175,-0.13462 c -0.34562,-0.54424 -0.15324,-0.99533 0.42751,-1.00242 0.58073,-0.007 1.06137,0.43578 1.06806,0.98416 0.007,0.54838 -0.18568,0.99947 -0.42751,1.00242 -0.24182,0.003 -0.72246,-0.43992 -1.06806,-0.98416 z m -52.65292,-4.14859 c -2.60684,-0.13535 -4.748,-0.55795 -4.75811,-0.93912 -0.01,-0.38119 0.68717,-5.5256 1.54954,-11.43208 l 1.56793,-10.73904 9.52757,-0.1504 c 48.57692,-0.76689 94.37381,-0.9245 94.98619,-0.32688 1.07698,1.051 5.49885,20.94779 4.8119,21.65172 -0.31578,0.32358 -7.57473,0.78799 -16.13102,1.03202 -11.98614,0.34186 -15.81362,0.14198 -16.67537,-0.871 -1.44229,-1.6953 -3.8702,-1.66884 -3.84932,0.042 0.0132,1.07448 -6.21418,1.38474 -33.13673,1.651 -18.23409,0.1803 -35.28575,0.21715 -37.89258,0.0818 z m 101.71403,-7.20729 c 0.18387,-0.11898 -0.005,-2.11932 -0.41938,-4.44522 -1.45108,-8.14202 3.09529,-7.50639 -49.79174,-6.9615 -38.73858,0.39909 -47.4997,0.73513 -48.40754,1.85661 -0.60966,0.75312 -1.34735,3.62123 -1.63931,6.37358 l -0.53083,5.00429 13.78983,-0.0404 c 7.58441,-0.0222 13.88719,0.0552 14.00616,0.1721 0.2757,0.27086 72.54415,-1.66914 72.99281,-1.95943 z m -51.02449,-1.23289 c -0.16843,-0.16435 -10.72562,-0.25491 -23.46045,-0.20125 -16.17689,0.0682 -23.04862,-0.23084 -22.80379,-0.9923 0.50278,-1.56374 51.71278,-2.14829 52.25071,-0.59644 0.33591,0.96909 -5.14757,2.60867 -5.98647,1.78999 z m 13.02421,-0.32681 c -2.37568,-0.244 -4.0885,-2.0877 -2.02095,-2.17536 28.86315,-1.22368 37.94455,-0.91831 35.87129,1.2062 -0.5524,0.56605 -29.66101,1.39945 -33.85034,0.96916 z m -56.89836,-4.2983 c -1.99044,-0.34384 -2.40353,-2.11031 -0.52024,-2.22467 0.68506,-0.0416 21.43604,-0.30715 46.11327,-0.59003 35.72107,-0.40953 44.87087,-0.25478 44.88326,0.75903 0.0124,1.01409 -9.02061,1.38371 -44.35875,1.81509 -24.40586,0.29792 -45.15875,0.40616 -46.11754,0.24055 z M 220.05399,86.772548 c -0.0116,-0.94583 2.96718,-1.45894 3.50973,-0.60459 0.33052,0.52047 -0.32288,0.9576 -1.45201,0.97138 -1.12911,0.0138 -2.05509,-0.15127 -2.05772,-0.36679 z"
     id="path2989"
     style="fill:#1a1a1a" />
</svg>
