<?xml version="1.0" encoding="utf-8"?>
<!-- Svg Vector Icons : http://www.onlinewebfonts.com/icon -->
<!DOCTYPE svg PUBLIC "-//W3C//DTD SVG 1.1//EN" "http://www.w3.org/Graphics/SVG/1.1/DTD/svg11.dtd">
<svg version="1.1" xmlns="http://www.w3.org/2000/svg" xmlns:xlink="http://www.w3.org/1999/xlink" x="0px" y="0px" viewBox="0 0 1000 1000" enable-background="new 0 0 1000 1000" xml:space="preserve">
<metadata> Svg Vector Icons : http://www.onlinewebfonts.com/icon </metadata>
<g><g transform="translate(0.000000,511.000000) scale(0.100000,-0.100000)"><path d="M3708.3,5010.1c-353.6-40.6-730.4-234.8-1028.9-530.4c-391.3-385.5-614.4-866.6-620.2-1333.2c-2.9-463.7,165.2-776.7,513-953.5c176.8-92.8,220.3-101.4,434.7-101.4c437.6,0,779.7,162.3,1168,547.8c223.2,220.3,284,304.3,400,536.2c286.9,585.5,284,1133.2-11.6,1507.1c-115.9,147.8-347.8,284-521.7,304.3c-72.5,8.7-156.5,20.3-188.4,26.1C3821.3,5015.9,3757.5,5015.9,3708.3,5010.1z"/><path d="M6513.8,4931.8c-640.5-162.3-1243.4-785.4-1417.3-1463.6c-72.5-286.9-46.4-692.7,58-907.2c336.2-704.3,1292.6-686.9,2020.1,34.8c205.8,205.8,269.6,292.7,382.6,521.7c162.3,327.5,223.2,553.6,223.2,814.4c0,585.4-362.3,997-904.3,1026C6754.4,4966.6,6600.8,4955,6513.8,4931.8z"/><path d="M8548.4,2865.3c-159.4-31.9-498.5-168.1-660.8-260.8c-391.3-229-776.7-713-901.4-1136.1c-147.8-504.3,46.4-1005.7,469.5-1208.6c217.4-104.3,617.3-130.4,904.3-55.1C9209.2,425,9925.1,1285.8,9858.5,2007.5c-52.2,539.1-463.7,884-1046.3,875.3C8699.2,2879.8,8580.3,2874,8548.4,2865.3z"/><path d="M1824.4,1766.9C963.5,1575.6,273.8,961.2,128.8,256.9C-1.6-360.5,323-1212.6,844.7-1618.3c89.8-72.5,321.7-211.6,515.9-310.1c489.8-255,721.7-408.7,959.3-646.3c240.6-240.6,394.2-469.5,663.7-997c318.8-620.3,649.2-915.9,1255-1127.5c240.6-81.1,318.8-95.6,559.4-95.6c315.9,0,501.4,46.4,782.6,191.3c475.3,249.3,846.3,742,1026,1365.1c142,484,127.5,942-43.5,1536.1c-98.5,350.7-133.3,582.5-173.9,1237.6c-52.2,820.2-156.5,1136.1-489.8,1466.5c-359.4,356.5-631.9,443.4-1553.5,507.2c-689.8,49.3-808.6,66.7-1234.7,191.3c-255,75.4-362.3,92.7-692.7,101.4C2134.5,1810.4,1972.2,1798.8,1824.4,1766.9z"/><path d="M8562.9-143.1c-136.2-26.1-318.8-89.8-492.7-176.8c-231.9-115.9-315.9-179.7-536.2-400c-518.8-518.8-692.7-1130.3-463.7-1599.9c455-927.5,2078.1-559.4,2666.4,602.9C10212.1-772,9597.6,51.1,8562.9-143.1z"/></g></g>
</svg>